<mxfile host="app.diagrams.net" modified="2023-08-06T06:44:28.202Z" agent="Mozilla/5.0 (Macintosh; Intel Mac OS X 10_15_7) AppleWebKit/605.1.15 (KHTML, like Gecko) Version/16.4 Safari/605.1.15" version="21.4.0" etag="dZDDsKkP_jAbUO0AWGDv" type="github">
  <diagram name="Page-1" id="VJ3IdGzqsYXKa44ypbsc">
    <mxGraphModel>
      <root>
        <mxCell id="0" />
        <mxCell id="1" parent="0" />
      </root>
    </mxGraphModel>
  </diagram>
</mxfile>
